# AST/ASF file generated using VICON BodyLanguage
# -----------------------------------------------
:version 1.10
:name VICON
:units
  mass 1.0
  length 0.45
  angle deg
:documentation
   .ast/.asf automatically generated from VICON data using
   VICON BodyBuilder and BodyLanguage model FoxedUp or BRILLIANT.MOD
:root
   order TX TY TZ RX RY RZ
   axis XYZ
   position 0 0 0  
   orientation 0 0 0 
:bonedata
  begin
     id 1 
     name lhipjoint
     direction 0.602128 -0.715006 0.355257 
     length 2.21237 
     axis 0 0 0  XYZ
  end
  begin
     id 2 
     name lfemur
     direction 0.34202 -0.939693 0  
     length 6.71649  
     axis 0 0 20  XYZ
    dof rx ry rz
    limits (-160.0 20.0)
           (-70.0 70.0)
           (-60.0 70.0)
  end
  begin
     id 3 
     name ltibia
     direction 0.34202 -0.939693 0   
     length 6.97123   
     axis 0 0 20   XYZ
    dof rx
    limits (-10.0 170.0)
  end
  begin
     id 4 
     name lfoot
     direction 0.0655697 -0.180151 0.981451   
     length 1.80924   
     axis -90 7.62852e-016 20   XYZ
    dof rx rz
    limits (-45.0 90.0)
           (-70.0 20.0)
  end
  begin
     id 5 
     name ltoes
     direction 1.53545e-011 -4.21827e-011 1   
     length 0.916331   
     axis -90 7.62852e-016 20   XYZ
    dof rx
    limits (-90.0 20.0)
  end
  begin
     id 6 
     name rhipjoint
     direction -0.625414 -0.698792 0.347201   
     length 2.2637  
     axis 0 0 0  XYZ 
  end
  begin
     id 7 
     name rfemur
     direction -0.34202 -0.939693 0   
     length 7.07595   
     axis 0 0 -20   XYZ
    dof rx ry rz
    limits (-160.0 20.0)
           (-70.0 70.0)
           (-70.0 60.0)
  end
  begin
     id 8 
     name rtibia
     direction -0.34202 -0.939693 0   
     length 7.22924   
     axis 0 0 -20   XYZ
    dof rx
    limits (-10.0 170.0)
 end
 begin
     id 9 
     name rfoot
     direction -0.0766747 -0.210662 0.974547   
     length 1.98482  
     axis -90 -7.62852e-016 -20   XYZ
    dof rx rz
    limits (-45.0 90.0)
           (-20.0 70.0)
  end
  begin
     id 10 
     name rtoes
     direction -1.53532e-011 -4.21867e-011 1   
     length 0.999842   
     axis -90 -7.62852e-016 -20   XYZ
    dof rx
    limits (-90.0 20.0)
  end
  begin
     id 11 
     name lowerback
     direction -0.0224668 0.997354 -0.0691422   
     length 2.09945   
     axis 0 0 0   XYZ
    dof rx ry rz
    limits (-20.0 45.0)
           (-30.0 30.0)
           (-30.0 30.0)
  end
  begin
     id 12 
     name upperback
     direction 0.0134698 0.998451 -0.0539888   
     length 2.09758   
     axis 0 0 0   XYZ
    dof rx ry rz
    limits (-20.0 45.0)
           (-30.0 30.0)
           (-30.0 30.0)
  end
  begin
     id 13 
     name thorax
     direction 0.0241905 0.99948 -0.0213333   
     length 2.10428   
     axis 0 0 0   XYZ
    dof rx ry rz
    limits (-20.0 45.0)
           (-30.0 30.0)
           (-30.0 30.0)
  end
  begin
     id 14 
     name lowerneck
     direction -0.00866847 0.995978 0.0891737   
     length 1.3959   
     axis 0 0 0   XYZ
    dof rx ry rz
    limits (-20.0 45.0)
           (-30.0 30.0)
           (-30.0 30.0)
  end
  begin
     id 15 
     name upperneck
     direction 0.0680679 0.992203 0.104404   
     length 1.39452   
     axis 0 0 0   XYZ
    dof rx ry rz
    limits (-20.0 45.0)
           (-30.0 30.0)
           (-30.0 30.0)
  end
  begin
     id 16
     name head
     direction 0.0242216 0.999358 0.0264054  
     length 1.40433  
     axis 0 0 0   XYZ
    dof rx ry rz
    limits (-20.0 45.0)
           (-30.0 30.0)
           (-30.0 30.0)
  end
  begin
     id 17 
     name lclavicle
     direction 0.929368 0.362991 -0.0671771  
     length 3.04887  
     axis 0 0 0   XYZ
    dof ry rz
    limits (-20.0 10.0)
           (0.0 20.0)
  end
  begin
     id 18 
     name lhumerus
     direction 1 -4.48967e-011 -7.13741e-028   
     length 4.77195   
     axis -180 -30 -90   XYZ
    dof rx ry rz
    limits (-60.0 90.0)
           (-90.0 90.0)
           (-90.0 90.0)
  end
  begin
     id 19
     name lradius
     direction 1 -4.48977e-011 3.60404e-027   
     length 2.98444   
     axis -180 -30 -90   XYZ
    dof rx
    limits (-10.0 170.0)
  end
  begin
     id 20
     name lwrist
     direction 1 -4.48997e-011 7.54877e-027   
     length 1.49222   
     axis -7.18178e-015 90 90   XYZ
    dof ry
    limits (-180.0 0.0)
 end
  begin
     id 21 
     name lhand
     direction 1 -4.489e-011 1.51105e-026   
     length 0.992285   
     axis -9.63605e-015 90 90   XYZ
    dof rx rz
    limits (-90.0 90.0)
           (-45.0 45.0)
  end
  begin
     id 22 
     name lfingers
     direction 1 -4.48998e-011 3.01948e-026   
     length 0.800006   
     axis -1.92718e-014 90 90   XYZ
    dof rx
    limits (0.0 90.0)
  end
  begin
     id 23
     name lthumb
     direction 0.707107 -6.34881e-011 0.707107   
     length 1.14865   
     axis -90 45 -3.53137e-014   XYZ
    dof rx rz
    limits (-45.0 45.0)
           (-45.0 45.0)
  end
  begin
     id 24 
     name rclavicle
     direction -0.945672 0.324529 0.0196374   
     length 3.4236  
     axis 0 0 0   XYZ 
    dof ry rz
    limits (-10.0 20.0)
           (-20.0 0.0)
  end
  begin
     id 25 
     name rhumerus
     direction -1 -4.4896e-011 1.02757e-029  
     length 4.62052   
     axis -180 30 90   XYZ
    dof rx ry rz
    limits (-90.0 60.0)
           (-90.0 90.0)
           (-90.0 90.0)
  end
  begin
     id 26 
     name rradius
     direction -1 -4.48982e-011 3.85962e-027   
     length 2.95332   
     axis -180 30 90   XYZ
    dof rx
    limits (-10.0 170.0)
  end
  begin
     id 27 
     name rwrist
     direction -1 -4.48961e-011 7.55118e-027   
     length 1.47666   
     axis -7.18178e-015 -90 -90   XYZ
    dof ry
    limits (-180.0 0.0)
  end
  begin
     id 28
     name rhand
     direction -1 -4.48984e-011 1.50994e-026   
     length 0.990956   
     axis -9.63605e-015 -90 -90   XYZ
    dof rx rz
    limits (-90.0 90.0)
           (-45.0 45.0)
  end
  begin
     id 29
     name rfingers
     direction -1 -4.4892e-011 3.02158e-026   
     length 0.798934   
     axis -1.92718e-014 -90 -90   XYZ
    dof rx
    limits (0.0 90.0)
  end
  begin
     id 30
     name rthumb
     direction -0.707107 -6.34916e-011 0.707107   
     length 1.14711   
     axis -90 -45 3.53137e-014   XYZ
    dof rx rz
    limits (-45.0 45.0)
           (-45.0 45.0)
  end
:hierarchy
  begin
    root lhipjoint rhipjoint lowerback
    lhipjoint lfemur
    lfemur ltibia
    ltibia lfoot
    lfoot ltoes
    rhipjoint rfemur
    rfemur rtibia
    rtibia rfoot
    rfoot rtoes
    lowerback upperback
    upperback thorax
    thorax lowerneck lclavicle rclavicle
    lowerneck upperneck
    upperneck head
    lclavicle lhumerus
    lhumerus lradius
    lradius lwrist
    lwrist lhand lthumb
    lhand lfingers
    rclavicle rhumerus
    rhumerus rradius
    rradius rwrist
    rwrist rhand rthumb
    rhand rfingers
  end

#!OML:ASF H:\ManfredObstacles\Project 1\Capture day 1\Session 1\Male.ASF
:FULLY-SPECIFIED
:DEGREES
440
root -2.81484 8.69535 8.40449 -114.901 -0.132923 -184.867
lowerback 22.1044 -1.87069 -3.6441
upperback 7.44864 -4.22117 3.05095
thorax -3.67513 -2.56988 6.43522
lowerneck 0.831265 -2.52992 -8.48695
upperneck -28.5854 0.940394 13.4888
head -8.9964 1.3102 5.96832
rclavicle -1.98785e-014 3.28181e-014
rhumerus 26.3327 18.9521 -77.2585
rradius 44.3798
rwrist 38.7819
rhand -65.3579 27.7635
rfingers 7.12502
rthumb -37.2361 1.76042
lclavicle -1.98785e-014 3.28181e-014
lhumerus 59.0677 0.661191 66.0636
lradius 34.7244
lwrist -25.7186
lhand -50.781 0.24495
lfingers 7.12502
lthumb -23.3386 28.8501
rfemur -90.1952 -20.724 21.2442
rtibia 141.053
rfoot 147.331 -149.586
rtoes 15.3381
lfemur -46.0779 -5.56568 -21.3265
ltibia 84.0993
lfoot 4.18144 -13.8392
ltoes -48.1901
441
root -2.8159 8.638 8.26103 -115.089 -0.635665 -186
lowerback 21.6948 -2.17788 -3.58377
upperback 7.66916 -4.62538 3.23749
thorax -3.16132 -2.80315 6.64785
lowerneck 0.712209 -2.62493 -8.82024
upperneck -28.558 0.787989 13.562
head -8.94048 1.27043 6.06278
rclavicle 1.51076e-014 1.22501e-014
rhumerus 25.441 18.8534 -77.0902
rradius 44.4468
rwrist 38.8906
rhand -65.6213 29.2177
rfingers 7.12502
rthumb -37.4851 3.28018
lclavicle 1.51076e-014 1.22501e-014
lhumerus 57.9802 0.240478 67.4664
lradius 35.5228
lwrist -26.5033
lhand -51.7028 -0.0393391
lfingers 7.12502
lthumb -24.2226 28.4508
rfemur -93.1124 -24.7043 22.3151
rtibia 142.927
rfoot 146.104 -148.954
rtoes 14.4324
lfemur -44.7834 -6.86446 -21.5263
ltibia 82.9059
lfoot 4.19087 -13.4045
ltoes -48.9865
442
root -2.81065 8.59054 8.095 -115.366 -1.35726 -186.952
lowerback 21.5093 -2.45144 -3.46244
upperback 7.84871 -4.97722 3.5281
thorax -2.80451 -3.00641 6.94416
lowerneck 0.702799 -2.68638 -9.12771
upperneck -28.5665 0.667989 13.5909
head -8.92298 1.24107 6.13768
rclavicle 6.2816e-014 -1.46604e-014
rhumerus 24.4054 18.798 -77.0648
rradius 44.569
rwrist 38.5127
rhand -65.5044 31.7857
rfingers 7.12502
rthumb -37.3747 5.819
lclavicle 6.2816e-014 -1.46604e-014
lhumerus 56.8232 -0.200732 68.5709
lradius 36.2346
lwrist -26.9884
lhand -52.6028 -0.426278
lfingers 7.12502
lthumb -25.0852 27.9461
rfemur -95.1481 -27.0469 23.2428
rtibia 143.822
rfoot 146.157 -147.741
rtoes 16.855
lfemur -43.2134 -7.95219 -21.4177
ltibia 81.539
lfoot 4.70805 -13.1027
ltoes -48.979
443
root -2.80928 8.54268 7.90594 -116.175 -2.076 -187.759
lowerback 21.9189 -2.62169 -3.31127
upperback 8.10794 -5.24444 3.7898
thorax -2.6758 -3.17604 7.22418
lowerneck 0.710688 -2.72107 -9.32463
upperneck -28.5076 0.559891 13.5227
head -8.88867 1.20717 6.1538
rclavicle -4.37326e-014 4.50744e-014
rhumerus 23.2474 18.6115 -77.14
rradius 44.6254
rwrist 38.3273
rhand -65.4731 34.1564
rfingers 7.12502
rthumb -37.3451 8.18195
lclavicle -4.37326e-014 4.50744e-014
lhumerus 55.6677 -0.894681 69.2528
lradius 36.8127
lwrist -27.0481
lhand -53.5524 -0.883116
lfingers 7.12502
lthumb -25.9948 27.3589
rfemur -95.6706 -28.5558 23.4169
rtibia 143.975
rfoot 145.968 -147.866
rtoes 16.2386
lfemur -40.7579 -8.91332 -21.3769
ltibia 79.9677
lfoot 5.01623 -12.7447
ltoes -49.3776
444
root -2.81143 8.47465 7.73534 -116.513 -2.84839 -188.613
lowerback 21.8952 -2.98999 -3.21335
upperback 7.92743 -5.65823 4.16748
thorax -2.76396 -3.36769 7.68095
lowerneck 1.5581 -2.53559 -9.96263
upperneck -28.5055 0.598481 13.4792
head -9.05248 1.21839 6.27226
rclavicle -1.27222e-014 -1.73843e-014
rhumerus 21.4286 18.9158 -77.1641
rradius 44.6241
rwrist 38.5517
rhand -65.7458 35.8745
rfingers 7.12502
rthumb -37.6029 9.96827
lclavicle -1.27222e-014 -1.73843e-014
lhumerus 53.8354 -1.52038 70.0758
lradius 37.3247
lwrist -27.2192
lhand -54.5048 -1.12102
lfingers 7.12502
lthumb -26.9064 26.9838
rfemur -96.3407 -28.7516 23.8833
rtibia 143.536
rfoot 145.399 -149.946
rtoes 11.802
lfemur -38.888 -10.0139 -21.227
ltibia 78.4032
lfoot 4.46122 -11.9028
ltoes -51.7226
445
root -2.81432 8.40562 7.5634 -116.073 -3.74411 -189.332
lowerback 20.8747 -3.36003 -2.78237
upperback 7.78059 -5.96954 4.47267
thorax -2.36745 -3.50849 7.73304
lowerneck 1.936 -2.53164 -10.2455
upperneck -28.5019 0.48915 13.4362
head -9.10752 1.16626 6.32425
rclavicle -6.2816e-014 7.89299e-014
rhumerus 19.9067 18.7889 -77.2454
rradius 44.4273
rwrist 39.0262
rhand -66.1655 37.3095
rfingers 7.12502
rthumb -37.9993 11.5101
lclavicle -6.2816e-014 7.89299e-014
lhumerus 52.4638 -2.33521 70.9803
lradius 37.7412
lwrist -27.7521
lhand -55.3882 -1.31135
lfingers 7.12502
lthumb -27.7514 26.6603
rfemur -97.5424 -28.0681 23.9475
rtibia 142.782
rfoot 147.889 -149.654
rtoes 17.4474
lfemur -37.9505 -11.095 -20.7179
ltibia 76.8188
lfoot 4.99972 -11.2312
ltoes -51.3475
446
root -2.82498 8.34342 7.35636 -116.756 -4.66723 -189.94
lowerback 21.1725 -3.55533 -2.20909
upperback 7.95546 -6.16155 4.65761
thorax -2.33528 -3.61815 7.66786
lowerneck 1.92515 -2.64178 -10.3704
upperneck -28.4387 0.314959 13.4816
head -9.05614 1.08899 6.37211
rclavicle 4.29375e-014 -1.97822e-014
rhumerus 18.6743 18.6455 -77.1
rradius 44.1221
rwrist 39.1299
rhand -66.6387 39.5323
rfingers 7.12502
rthumb -38.446 13.8558
lclavicle 4.29375e-014 -1.97822e-014
lhumerus 51.1108 -3.2845 72.0732
lradius 38.3432
lwrist -28.6461
lhand -56.0933 -1.80247
lfingers 7.12502
lthumb -28.4254 26.0586
rfemur -95.9361 -27.6193 22.9193
rtibia 141.566
rfoot 149.234 -149.564
rtoes 17.5582
lfemur -35.4253 -12.1304 -20.4641
ltibia 74.9768
lfoot 5.02992 -10.6122
ltoes -51.8998
